<svg xmlns="http://www.w3.org/2000/svg" width="1200" height="630" viewBox="0 0 1200 630" fill="none">
  <rect width="1200" height="630" fill="#080B0D"/>
  <g stroke="#222A31" stroke-width="1" opacity="0.55">
    <path d="M0 128.5H1200M0 256.5H1200M0 384.5H1200M0 512.5H1200"/>
    <path d="M128.5 0V630M256.5 0V630M384.5 0V630M512.5 0V630M640.5 0V630M768.5 0V630M896.5 0V630M1024.5 0V630"/>
  </g>
  <g transform="translate(96 92)">
    <rect width="72" height="72" rx="20.25" fill="#161C21"/>
    <g stroke="#FF5D2E" stroke-width="9" stroke-linecap="round">
      <path d="M31.5 20.25 L20.25 51.75"/>
      <path d="M49.5 20.25 L38.25 51.75"/>
    </g>
    <text x="92" y="49" fill="#F4F5F3" font-family="'Space Grotesk', ui-sans-serif, system-ui, sans-serif" font-size="40" font-weight="500" letter-spacing="-0.8">tech-agnostic</text>
  </g>
  <text x="96" y="330" fill="#F4F5F3" font-family="'Space Grotesk', ui-sans-serif, system-ui, sans-serif" font-size="66" font-weight="700" letter-spacing="-2.3">Independent IT consulting.</text>
  <text x="96" y="404" fill="#7E8F9B" font-family="ui-sans-serif, system-ui, sans-serif" font-size="30">No vendor kickbacks. No stack religion. No 90-page decks.</text>
  <rect x="96" y="486" width="316" height="4" fill="#FF5D2E"/>
  <text x="96" y="546" fill="#7E8F9B" font-family="ui-monospace, SFMono-Regular, Menlo, monospace" font-size="24" letter-spacing="3.4">TECH-AGNOSTIC.COM</text>
</svg>
